<svg width="117" height="24" viewBox="0 0 117 24" fill="none" xmlns="http://www.w3.org/2000/svg">
<path d="M11.5063 1.57091C11.7609 1.05503 12.4966 1.05503 12.7512 1.57091L15.3671 6.8713C15.4682 7.07616 15.6636 7.21815 15.8897 7.251L21.739 8.10095C22.3083 8.18368 22.5356 8.88331 22.1237 9.28486L17.8911 13.4106C17.7275 13.5701 17.6528 13.7998 17.6915 14.025L18.6906 19.8507C18.7879 20.4177 18.1928 20.8501 17.6835 20.5824L12.4517 17.8319C12.2495 17.7256 12.008 17.7256 11.8058 17.8319L6.57397 20.5824C6.06476 20.8501 5.46963 20.4177 5.56688 19.8507L6.56606 14.025C6.60468 13.7998 6.53003 13.5701 6.36644 13.4106L2.13383 9.28486C1.72187 8.88331 1.9492 8.18368 2.5185 8.10095L8.36783 7.251C8.59391 7.21815 8.78934 7.07616 8.89044 6.8713L11.5063 1.57091Z" fill="#FFB547"/>
<path d="M34.6429 1.57088C34.8975 1.055 35.6332 1.055 35.8878 1.57088L38.5037 6.87127C38.6048 7.07613 38.8002 7.21812 39.0263 7.25097L44.8756 8.10092C45.4449 8.18365 45.6722 8.88328 45.2603 9.28483L41.0277 13.4106C40.8641 13.5701 40.7894 13.7998 40.8281 14.025L41.8272 19.8507C41.9245 20.4177 41.3293 20.8501 40.8201 20.5824L35.5883 17.8318C35.3861 17.7255 35.1446 17.7255 34.9424 17.8318L29.7106 20.5824C29.2014 20.8501 28.6062 20.4177 28.7035 19.8507L29.7027 14.025C29.7413 13.7998 29.6666 13.5701 29.503 13.4106L25.2704 9.28483C24.8585 8.88328 25.0858 8.18365 25.6551 8.10092L31.5044 7.25097C31.7305 7.21812 31.9259 7.07613 32.027 6.87127L34.6429 1.57088Z" fill="#FFB547"/>
<path d="M57.7794 1.57088C58.034 1.055 58.7696 1.055 59.0242 1.57088L61.6401 6.87127C61.7412 7.07613 61.9366 7.21812 62.1627 7.25097L68.012 8.10092C68.5813 8.18365 68.8087 8.88328 68.3967 9.28483L64.1641 13.4106C64.0005 13.5701 63.9258 13.7998 63.9645 14.025L64.9636 19.8507C65.0609 20.4177 64.4658 20.8501 63.9566 20.5824L58.7248 17.8318C58.5226 17.7255 58.281 17.7255 58.0788 17.8318L52.847 20.5824C52.3378 20.8501 51.7426 20.4177 51.8399 19.8507L52.8391 14.025C52.8777 13.7998 52.803 13.5701 52.6395 13.4106L48.4068 9.28483C47.9949 8.88328 48.2222 8.18365 48.7915 8.10092L54.6408 7.25097C54.8669 7.21812 55.0623 7.07613 55.1635 6.87127L57.7794 1.57088Z" fill="#FFB547"/>
<path d="M80.9158 1.57088C81.1704 1.055 81.906 1.055 82.1606 1.57088L84.7765 6.87127C84.8776 7.07613 85.073 7.21812 85.2991 7.25097L91.1484 8.10092C91.7177 8.18365 91.9451 8.88328 91.5331 9.28483L87.3005 13.4106C87.1369 13.5701 87.0623 13.7998 87.1009 14.025L88.1001 19.8507C88.1973 20.4177 87.6022 20.8501 87.093 20.5824L81.8612 17.8318C81.659 17.7255 81.4174 17.7255 81.2152 17.8318L75.9834 20.5824C75.4742 20.8501 74.8791 20.4177 74.9763 19.8507L75.9755 14.025C76.0141 13.7998 75.9395 13.5701 75.7759 13.4106L71.5433 9.28483C71.1313 8.88328 71.3586 8.18365 71.9279 8.10092L77.7773 7.25097C78.0033 7.21812 78.1988 7.07613 78.2999 6.87127L80.9158 1.57088Z" fill="#FFB547"/>
<path d="M104.052 1.57088C104.307 1.055 105.042 1.055 105.297 1.57088L107.913 6.87127C108.014 7.07613 108.209 7.21812 108.436 7.25097L114.285 8.10092C114.854 8.18365 115.081 8.88328 114.67 9.28483L110.437 13.4106C110.273 13.5701 110.199 13.7998 110.237 14.025L111.236 19.8507C111.334 20.4177 110.739 20.8501 110.229 20.5824L104.998 17.8318C104.795 17.7255 104.554 17.7255 104.352 17.8318L99.1198 20.5824C98.6106 20.8501 98.0155 20.4177 98.1127 19.8507L99.1119 14.025C99.1505 13.7998 99.0759 13.5701 98.9123 13.4106L94.6797 9.28483C94.2677 8.88328 94.495 8.18365 95.0643 8.10092L100.914 7.25097C101.14 7.21812 101.335 7.07613 101.436 6.87127L104.052 1.57088Z" fill="#D9D9D9"/>
</svg>
