<svg width="26" height="22" viewBox="0 0 26 22" fill="none" xmlns="http://www.w3.org/2000/svg">
<path d="M4.8952 1.96701C6.51492 1.33809 8.31998 1.47203 9.78387 2.29807L10.072 2.47287L10.0739 2.47385C10.841 2.96779 11.4362 3.60926 11.862 4.38303L12.7214 5.94455L13.5866 4.38596C13.9642 3.70615 14.466 3.13119 15.0983 2.66623L15.3776 2.47287H15.3786C16.8905 1.49316 18.8236 1.29891 20.5544 1.96701V1.96799C20.8469 2.08243 21.1301 2.21881 21.3981 2.37717L21.6608 2.54318L21.6638 2.54416C22.9241 3.38397 23.8318 4.75132 24.1579 6.34494L24.2155 6.66623V6.66916C24.9059 11.1245 22.3286 14.6084 19.2595 17.1076C16.4033 19.4334 13.3106 20.7387 12.7243 20.9748C12.1475 20.7437 9.04956 19.4385 6.18817 17.1086C3.21436 14.6871 0.70138 11.3408 1.17255 7.08322L1.22723 6.66818C1.47722 5.04388 2.32492 3.62774 3.53876 2.71994L3.78583 2.54514L3.79071 2.54221C4.13092 2.31326 4.50505 2.121 4.89618 1.96799L4.8952 1.96701Z" fill="white" stroke="#8A8A8A" stroke-width="1.97118"/>
</svg>
